<svg width="300" height="300" viewBox="0 0 300 300" fill="none" xmlns="http://www.w3.org/2000/svg">
<rect width="300" height="300" rx="30" fill="#00B36D"/>
<path fill-rule="evenodd" clip-rule="evenodd" d="M247.67 75.7899V133.192C242.57 120.863 230.891 112.521 217.585 111.707C213.801 111.422 209.989 111.789 206.313 112.779L69.6163 149.428C68.7347 149.686 67.8259 149.835 66.9171 149.876C66.2932 149.984 65.6692 150.039 65.0453 150.039C58.6838 150.066 53.5024 144.952 53.4346 138.591C53.3532 138.048 53.3125 137.506 53.3125 136.95V117.526V116.237C53.3396 115.885 53.3668 115.532 53.4346 115.193V114.895C53.4346 114.8 53.5702 114.23 53.6516 113.891C53.6787 113.755 53.7059 113.62 53.7465 113.484C53.7465 113.226 53.8822 112.955 53.9636 112.697C54.045 112.44 54.1399 112.155 54.2484 111.883C54.3027 111.775 54.3569 111.653 54.384 111.544C56.283 106.729 60.3657 103.094 65.3708 101.765L225.574 58.8622C226.646 58.5638 227.758 58.3603 228.87 58.2518C229.684 58.0755 230.525 57.9805 231.352 57.9263H232.085C240.644 57.9263 247.575 64.8574 247.575 73.4162C247.575 73.4434 247.575 73.4705 247.575 73.4976V73.796C247.629 74.42 247.67 75.0846 247.67 75.7899Z" fill="white"/>
<path fill-rule="evenodd" clip-rule="evenodd" d="M210.68 134.629H208.483C206.353 134.629 204.238 134.914 202.189 135.457L180.962 141.154L66.2113 171.93C64.448 172.201 62.7525 172.812 61.2062 173.707H61.0299C56.2554 176.488 53.3256 181.588 53.312 187.108V245.826C53.2984 246.179 53.5697 246.491 53.9224 246.504C54.1801 246.504 54.4243 246.369 54.5463 246.125C59.9448 236.142 67.6762 227.61 77.1031 221.262C81.2401 218.332 85.7569 215.972 90.5313 214.249C92.0098 213.707 93.5018 213.246 95.0346 212.812L103.105 210.628L212.728 181.262L214.994 180.638C216.106 180.448 217.191 180.15 218.249 179.77C230.375 175.511 236.75 162.245 232.491 150.119C229.222 140.814 220.446 134.589 210.599 134.562L210.694 134.602L210.68 134.629Z" fill="white"/>
</svg>
