<svg width="318" height="58" viewBox="0 0 318 58" fill="none" xmlns="http://www.w3.org/2000/svg">
<rect width="58" height="58" rx="5.8" fill="#00B36D"/>
<path fill-rule="evenodd" clip-rule="evenodd" d="M47.8824 14.6527V25.7505C46.8963 23.3668 44.6385 21.7541 42.066 21.5967C41.3343 21.5417 40.5975 21.6125 39.8868 21.8039L13.4587 28.8895C13.2883 28.9393 13.1126 28.9682 12.9369 28.976C12.8162 28.997 12.6956 29.0075 12.575 29.0075C11.3451 29.0127 10.3434 28.0241 10.3302 26.7942C10.3145 26.6893 10.3066 26.5844 10.3066 26.4769V22.7217V22.4726C10.3119 22.4044 10.3171 22.3362 10.3302 22.2707V22.213C10.3302 22.1946 10.3565 22.0845 10.3722 22.0189C10.3774 21.9927 10.3827 21.9665 10.3906 21.9403C10.3906 21.8904 10.4168 21.838 10.4325 21.7882C10.4482 21.7383 10.4666 21.6833 10.4876 21.6308C10.4981 21.6098 10.5086 21.5862 10.5138 21.5653C10.8809 20.6343 11.6703 19.9315 12.6379 19.6745L43.6105 11.38C43.8177 11.3223 44.0327 11.283 44.2478 11.262C44.4051 11.2279 44.5677 11.2096 44.7277 11.1991H44.8693C46.524 11.1991 47.864 12.5391 47.864 14.1938C47.864 14.1991 47.864 14.2043 47.864 14.2096V14.2673C47.8745 14.3879 47.8824 14.5164 47.8824 14.6527Z" fill="white"/>
<path fill-rule="evenodd" clip-rule="evenodd" d="M40.7313 26.0284H40.3065C39.8947 26.0284 39.4857 26.0834 39.0897 26.1883L34.9857 27.2897L12.8006 33.2398C12.4597 33.2923 12.1319 33.4103 11.8329 33.5834H11.7989C10.8758 34.121 10.3094 35.107 10.3067 36.1743V47.5264C10.3041 47.5946 10.3566 47.6549 10.4247 47.6575C10.4746 47.6575 10.5218 47.6313 10.5454 47.5841C11.5891 45.6541 13.0838 44.0046 14.9063 42.7773C15.7062 42.2109 16.5794 41.7546 17.5025 41.4216C17.7883 41.3167 18.0768 41.2275 18.3731 41.1436L19.9334 40.7214L41.1273 35.044L41.5652 34.9234C41.7802 34.8867 41.99 34.829 42.1945 34.7556C44.5389 33.9321 45.7714 31.3675 44.948 29.0231C44.316 27.2242 42.6194 26.0205 40.7155 26.0153L40.7339 26.0231L40.7313 26.0284Z" fill="white"/>
<path d="M79.9464 14.0423C80.4726 13.9896 80.8739 14.062 81.1502 14.2595C81.4264 14.457 81.5645 14.7664 81.5645 15.1878C81.5645 16.0041 81.1172 16.4519 80.2226 16.5309L79.078 16.6099C77.5781 16.7152 76.4597 17.1695 75.7229 17.9727C74.9862 18.7759 74.5521 19.9808 74.4204 21.5872L74.3415 22.6932H78.6438C79.0648 22.6932 79.3872 22.8051 79.6109 23.029C79.8345 23.2528 79.9464 23.5491 79.9464 23.9178C79.9464 24.3129 79.8279 24.6288 79.591 24.8658C79.3543 25.1029 79.0122 25.2213 78.5649 25.2213H74.1441L72.9205 40.5877C72.8942 41.088 72.7232 41.4699 72.4075 41.7333C72.0917 41.9966 71.7101 42.1283 71.2628 42.1283C70.8155 42.1283 70.4405 41.9966 70.1379 41.7333C69.8353 41.4699 69.6972 41.088 69.7235 40.5877L70.947 25.2213H68.3025C67.8815 25.2213 67.5591 25.1094 67.3355 24.8855C67.1118 24.6617 67 24.3655 67 23.9968C67 23.6018 67.1184 23.2858 67.3552 23.0487C67.5921 22.8118 67.9472 22.6932 68.421 22.6932H71.1444L71.1839 21.9822C71.368 19.4277 72.118 17.5118 73.4337 16.2346C74.7494 14.9573 76.6571 14.2398 79.1569 14.0817L79.9464 14.0423Z" fill="#2C2C2C"/>
<path d="M83.8537 42.1279C83.4063 42.1279 83.038 41.9962 82.7486 41.7329C82.4591 41.4695 82.3275 41.0745 82.3539 40.5477L84.3668 15.3455C84.3931 14.845 84.5774 14.4698 84.9195 14.2197C85.2616 13.9694 85.6562 13.8444 86.1036 13.8444C86.5509 13.8444 86.9127 13.9694 87.1889 14.2197C87.4653 14.4698 87.5902 14.845 87.5639 15.3455L85.5509 40.5477C85.5246 41.0745 85.3471 41.4695 85.0181 41.7329C84.6892 41.9962 84.3011 42.1279 83.8537 42.1279Z" fill="#2C2C2C"/>
<path d="M106.786 22.2987C107.26 22.2987 107.635 22.4369 107.911 22.7134C108.188 22.9899 108.299 23.3785 108.247 23.8788L106.905 40.6672C106.879 41.1148 106.701 41.4704 106.372 41.7338C106.043 41.9971 105.655 42.1288 105.208 42.1288C104.76 42.1288 104.405 42.0037 104.142 41.7535C103.879 41.5034 103.76 41.1544 103.787 40.7067L103.944 38.8106C103.287 39.8903 102.405 40.7264 101.3 41.3189C100.195 41.9115 98.9581 42.2078 97.5897 42.2078C95.4584 42.2078 93.8401 41.6482 92.7349 40.5289C91.6297 39.4097 91.0771 37.7704 91.0771 35.6109C91.0771 35.1369 91.0902 34.7813 91.1165 34.5444L91.9455 23.8788C91.9981 23.3785 92.1888 22.9899 92.5178 22.7134C92.8467 22.4369 93.2348 22.2987 93.6822 22.2987C94.1558 22.2987 94.5309 22.4369 94.8071 22.7134C95.0834 22.9899 95.1952 23.3785 95.1426 23.8788L94.3137 34.3469C94.2874 34.5312 94.2743 34.8076 94.2743 35.1763C94.2743 38.0732 95.6557 39.5217 98.4186 39.5217C100.129 39.5217 101.497 38.9949 102.524 37.9416C103.55 36.8882 104.129 35.4266 104.26 33.5568L105.05 23.8788C105.102 23.3785 105.293 22.9899 105.622 22.7134C105.951 22.4369 106.339 22.2987 106.786 22.2987Z" fill="#2C2C2C"/>
<path d="M115.193 32.8051V32.9632C115.193 35.0699 115.713 36.7026 116.752 37.8614C117.792 39.0201 119.298 39.5995 121.272 39.5995C123.35 39.5995 125.179 39.0201 126.758 37.8614C127.021 37.6771 127.284 37.5849 127.548 37.5849C127.863 37.5849 128.12 37.7034 128.317 37.9405C128.515 38.1774 128.613 38.4539 128.613 38.7699C128.613 39.2441 128.403 39.6785 127.982 40.0735C127.271 40.7056 126.278 41.2192 125.002 41.6142C123.725 42.0092 122.43 42.2067 121.114 42.2067C118.325 42.2067 116.108 41.364 114.463 39.6785C112.818 37.9931 111.996 35.7283 111.996 32.8841C111.996 30.7774 112.384 28.9208 113.161 27.3143C113.937 25.7079 115.042 24.457 116.476 23.5616C117.91 22.6663 119.574 22.2186 121.469 22.2186C124.048 22.2186 126.021 22.9888 127.39 24.5295C128.758 26.07 129.442 28.302 129.442 31.2251C129.442 31.7254 129.311 32.1139 129.047 32.3904C128.784 32.6669 128.429 32.8051 127.982 32.8051H115.193ZM121.587 24.7073C119.824 24.7073 118.417 25.2273 117.364 26.2675C116.312 27.3078 115.641 28.8023 115.351 30.7511H126.561C126.64 28.776 126.238 27.2749 125.357 26.2478C124.475 25.2207 123.219 24.7073 121.587 24.7073Z" fill="#2C2C2C"/>
<path d="M144.124 22.2186C146.282 22.2186 147.927 22.7848 149.058 23.9172C150.19 25.0496 150.755 26.6954 150.755 28.8549C150.755 29.3289 150.742 29.6845 150.716 29.9215L149.887 40.5475C149.835 41.0743 149.65 41.4693 149.335 41.7327C149.019 41.996 148.637 42.1277 148.19 42.1277C147.69 42.1277 147.302 41.996 147.025 41.7327C146.749 41.4693 146.637 41.0743 146.69 40.5475L147.519 30.119C147.545 29.9347 147.558 29.6582 147.558 29.2895C147.558 26.3663 146.151 24.9048 143.335 24.9048C141.546 24.9048 140.125 25.438 139.072 26.5046C138.02 27.5711 137.415 29.0392 137.257 30.909L136.467 40.5475C136.441 41.0743 136.27 41.4693 135.954 41.7327C135.638 41.996 135.244 42.1277 134.77 42.1277C134.296 42.1277 133.921 41.996 133.645 41.7327C133.369 41.4693 133.244 41.0743 133.27 40.5475L134.651 23.7987C134.678 23.3247 134.855 22.956 135.184 22.6926C135.513 22.4292 135.901 22.2976 136.349 22.2976C136.796 22.2976 137.151 22.4292 137.415 22.6926C137.678 22.956 137.796 23.3115 137.77 23.7591L137.612 25.6553C138.27 24.5755 139.164 23.7328 140.296 23.1272C141.427 22.5214 142.703 22.2186 144.124 22.2186Z" fill="#2C2C2C"/>
<path d="M160.425 34.9784C160.399 35.1628 160.386 35.4262 160.386 35.7685C160.386 37.0326 160.675 37.9939 161.254 38.6521C161.833 39.3105 162.649 39.6398 163.701 39.6398C164.043 39.6398 164.372 39.62 164.688 39.5805C165.004 39.541 165.241 39.5213 165.398 39.5213C165.662 39.5213 165.879 39.6266 166.05 39.8373C166.221 40.0479 166.306 40.3376 166.306 40.7063C166.306 41.2593 166.076 41.6478 165.615 41.8717C165.155 42.0955 164.346 42.2074 163.188 42.2074C161.293 42.2074 159.82 41.6675 158.767 40.5878C157.715 39.508 157.189 37.9806 157.189 36.0055C157.189 35.6368 157.202 35.3471 157.228 35.1365L157.978 25.2214H155.373C154.952 25.2214 154.629 25.1095 154.406 24.8856C154.182 24.6618 154.07 24.3656 154.07 23.9969C154.07 23.5756 154.195 23.2529 154.445 23.0291C154.695 22.8053 155.044 22.6933 155.491 22.6933H158.175L158.53 18.1901C158.583 17.7424 158.761 17.3803 159.063 17.1038C159.366 16.8272 159.754 16.689 160.228 16.689C160.728 16.689 161.116 16.8338 161.392 17.1235C161.668 17.4133 161.78 17.795 161.728 18.269L161.372 22.6933H165.714C166.109 22.6933 166.425 22.8053 166.661 23.0291C166.898 23.2529 167.017 23.5493 167.017 23.9179C167.017 24.3393 166.898 24.6618 166.661 24.8856C166.425 25.1095 166.083 25.2214 165.635 25.2214H161.175L160.425 34.9784Z" fill="#2C2C2C"/>
<path d="M317.609 26.4519H312.677V35.9971C312.677 36.819 312.863 37.4156 313.234 37.7868C313.605 38.1315 314.148 38.3303 314.864 38.3833C315.607 38.4099 316.522 38.3966 317.609 38.3436V42.2014C314.321 42.5991 311.961 42.3207 310.529 41.3662C309.098 40.3852 308.382 38.5955 308.382 35.9971V26.4519H304.723V22.3157H308.382V18.0204L312.677 16.7477V22.3157H317.609V26.4519Z" fill="#2C2C2C"/>
<path d="M296.708 25.6565C297.795 23.1907 299.837 21.9578 302.833 21.9578V26.611C301.189 26.505 299.758 26.9027 298.538 27.8042C297.318 28.6791 296.708 30.1374 296.708 32.179V42.2014H292.413V22.3157H296.708V25.6565Z" fill="#2C2C2C"/>
<path d="M278.03 42.7186C275.113 42.7186 272.634 41.7111 270.593 39.696C268.551 37.6809 267.53 35.2018 267.53 32.2587C267.53 29.3156 268.551 26.8365 270.593 24.8215C272.634 22.8064 275.113 21.7988 278.03 21.7988C280.973 21.7988 283.452 22.8064 285.467 24.8215C287.509 26.8365 288.53 29.3156 288.53 32.2587C288.53 35.2018 287.509 37.6809 285.467 39.696C283.452 41.7111 280.973 42.7186 278.03 42.7186ZM273.615 36.7529C274.808 37.946 276.28 38.5426 278.03 38.5426C279.78 38.5426 281.251 37.946 282.445 36.7529C283.638 35.5597 284.234 34.0617 284.234 32.2587C284.234 30.4557 283.638 28.9577 282.445 27.7645C281.251 26.5714 279.78 25.9748 278.03 25.9748C276.28 25.9748 274.808 26.5714 273.615 27.7645C272.422 28.9577 271.826 30.4557 271.826 32.2587C271.826 34.0617 272.422 35.5597 273.615 36.7529Z" fill="#2C2C2C"/>
<path d="M254.847 21.7988C257.578 21.7988 259.911 22.8196 261.847 24.8612C263.782 26.8763 264.75 29.3421 264.75 32.2587C264.75 35.2018 263.782 37.6809 261.847 39.696C259.911 41.7111 257.578 42.7186 254.847 42.7186C251.824 42.7186 249.504 41.605 247.887 39.3778V50.1559H243.592V22.3159H247.887V25.1794C249.504 22.9257 251.824 21.7988 254.847 21.7988ZM249.677 36.8324C250.87 38.0256 252.368 38.6221 254.171 38.6221C255.974 38.6221 257.472 38.0256 258.665 36.8324C259.858 35.6128 260.455 34.0882 260.455 32.2587C260.455 30.4292 259.858 28.9179 258.665 27.7248C257.472 26.5051 255.974 25.8953 254.171 25.8953C252.368 25.8953 250.87 26.5051 249.677 27.7248C248.484 28.9179 247.887 30.4292 247.887 32.2587C247.887 34.0882 248.484 35.6128 249.677 36.8324Z" fill="#2C2C2C"/>
<path d="M229.796 21.7988C232.527 21.7988 234.861 22.8196 236.796 24.8612C238.732 26.8763 239.699 29.3421 239.699 32.2587C239.699 35.2018 238.732 37.6809 236.796 39.696C234.861 41.7111 232.527 42.7186 229.796 42.7186C226.774 42.7186 224.454 41.605 222.836 39.3778V50.1559H218.541V22.3159H222.836V25.1794C224.454 22.9257 226.774 21.7988 229.796 21.7988ZM224.626 36.8324C225.819 38.0256 227.317 38.6221 229.12 38.6221C230.923 38.6221 232.421 38.0256 233.614 36.8324C234.808 35.6128 235.404 34.0882 235.404 32.2587C235.404 30.4292 234.808 28.9179 233.614 27.7248C232.421 26.5051 230.923 25.8953 229.12 25.8953C227.317 25.8953 225.819 26.5051 224.626 27.7248C223.433 28.9179 222.836 30.4292 222.836 32.2587C222.836 34.0882 223.433 35.6128 224.626 36.8324Z" fill="#2C2C2C"/>
<path d="M209.223 22.3159H213.518V42.2016H209.223V39.6563C207.923 41.6979 205.869 42.7187 203.058 42.7187C200.778 42.7187 198.935 41.9895 197.53 40.5312C196.125 39.0729 195.422 37.0711 195.422 34.5257V22.3159H199.717V34.0883C199.717 35.5731 200.115 36.7132 200.91 37.5086C201.706 38.304 202.793 38.7017 204.172 38.7017C205.683 38.7017 206.903 38.2377 207.831 37.3097C208.759 36.3552 209.223 34.9102 209.223 32.9747V22.3159Z" fill="#2C2C2C"/>
<path d="M182.256 42.7184C179.578 42.7184 177.298 42.1086 175.415 40.8889C173.559 39.6693 172.26 37.9989 171.518 35.8777L175.455 33.571C176.569 36.6997 178.875 38.264 182.375 38.264C184.099 38.264 185.385 37.9326 186.233 37.2697C187.108 36.5804 187.545 35.6921 187.545 34.605C187.545 33.4649 187.081 32.6032 186.153 32.0199C185.225 31.4101 183.582 30.7472 181.222 30.0313C179.896 29.6336 178.822 29.2624 178 28.9177C177.178 28.573 176.303 28.0958 175.375 27.486C174.474 26.8496 173.798 26.0674 173.347 25.1394C172.896 24.2114 172.671 23.1244 172.671 21.8782C172.671 19.4124 173.546 17.4636 175.296 16.0318C177.046 14.5735 179.154 13.8444 181.62 13.8444C183.847 13.8444 185.796 14.3879 187.466 15.475C189.136 16.5621 190.422 18.0601 191.324 19.9692L187.466 22.1964C186.299 19.598 184.35 18.2988 181.62 18.2988C180.294 18.2988 179.233 18.6169 178.438 19.2533C177.642 19.8631 177.245 20.6983 177.245 21.7589C177.245 22.7929 177.642 23.6149 178.438 24.2247C179.26 24.808 180.731 25.4311 182.852 26.094C183.913 26.4386 184.682 26.7038 185.159 26.8894C185.663 27.0485 186.352 27.3136 187.227 27.6848C188.129 28.056 188.805 28.4272 189.256 28.7984C189.706 29.1696 190.184 29.6336 190.687 30.1904C191.218 30.7472 191.589 31.3836 191.801 32.0994C192.013 32.8153 192.119 33.624 192.119 34.5255C192.119 37.0444 191.204 39.0462 189.375 40.531C187.572 41.9893 185.199 42.7184 182.256 42.7184Z" fill="#2C2C2C"/>
</svg>
