<?xml version="1.0" encoding="UTF-8"?> <svg xmlns="http://www.w3.org/2000/svg" width="175" height="40" viewBox="0 0 175 40" fill="none"><path fill-rule="evenodd" clip-rule="evenodd" d="M40 4C40 1.7924 38.2076 0 36 0H4C1.7924 0 0 1.7924 0 4V36C0 38.2076 1.7924 40 4 40H36C38.2076 40 40 38.2076 40 36V4Z" fill="#7742E6"></path><path fill-rule="evenodd" clip-rule="evenodd" d="M33.4604 9.48242C33.4604 9.48242 16.206 14.1056 9.324 15.9498C7.68133 16.3899 6.53906 17.8784 6.53906 19.5791C6.53906 20.8719 6.53906 22.111 6.53906 22.111C6.53906 22.111 20.3996 18.3971 28.2299 16.299C31.3151 15.4723 33.4604 12.6764 33.4604 9.48242Z" fill="white"></path><path fill-rule="evenodd" clip-rule="evenodd" d="M23.1277 20.6562C23.1277 20.6562 14.0488 23.0891 9.324 24.3551C7.68133 24.7952 6.53906 26.2837 6.53906 27.9844C6.53906 29.2772 6.53906 30.5163 6.53906 30.5163C6.53906 30.5163 13.0352 28.7757 17.8971 27.4729C20.9824 26.6462 23.1277 23.8504 23.1277 20.6564V20.6562Z" fill="white"></path><path d="M55.1785 10.3552C55.5414 10.3189 55.8182 10.3688 56.0087 10.505C56.1993 10.6412 56.2945 10.8546 56.2945 11.1452C56.2945 11.7082 55.986 12.0171 55.369 12.0715L54.5797 12.126C53.5453 12.1986 52.774 12.5119 52.2658 13.0659C51.7577 13.6198 51.4583 14.4507 51.3675 15.5586L51.3131 16.3214H54.2802C54.5706 16.3214 54.7929 16.3986 54.9472 16.553C55.1014 16.7073 55.1785 16.9117 55.1785 17.166C55.1785 17.4384 55.0968 17.6563 54.9335 17.8197C54.7702 17.9832 54.5343 18.0649 54.2258 18.0649H51.177L50.3331 28.6624C50.315 29.0075 50.197 29.2708 49.9793 29.4525C49.7615 29.6341 49.4983 29.7249 49.1899 29.7249C48.8814 29.7249 48.6227 29.6341 48.4141 29.4525C48.2054 29.2708 48.1101 29.0075 48.1283 28.6624L48.9721 18.0649H47.1483C46.858 18.0649 46.6356 17.9877 46.4814 17.8333C46.3271 17.679 46.25 17.4747 46.25 17.2204C46.25 16.948 46.3317 16.73 46.495 16.5665C46.6583 16.4031 46.9033 16.3214 47.23 16.3214H49.1082L49.1354 15.831C49.2624 14.0693 49.7797 12.748 50.687 11.8672C51.5944 10.9863 52.9101 10.4914 54.6341 10.3824L55.1785 10.3552Z" fill="#2C2C2C"></path><path d="M57.8725 29.7247C57.564 29.7247 57.31 29.6338 57.1104 29.4522C56.9108 29.2706 56.82 28.9982 56.8382 28.6349L58.2264 11.254C58.2446 10.9088 58.3716 10.6501 58.6076 10.4776C58.8435 10.305 59.1157 10.2188 59.4242 10.2188C59.7327 10.2188 59.9822 10.305 60.1727 10.4776C60.3633 10.6501 60.4495 10.9088 60.4313 11.254L59.0431 28.6349C59.0249 28.9982 58.9025 29.2706 58.6756 29.4522C58.4488 29.6338 58.1811 29.7247 57.8725 29.7247Z" fill="#2C2C2C"></path><path d="M73.6894 16.0488C74.0161 16.0488 74.2747 16.1442 74.4652 16.3348C74.6558 16.5255 74.7329 16.7935 74.6966 17.1385L73.7711 28.7167C73.753 29.0255 73.6305 29.2707 73.4036 29.4523C73.1768 29.6339 72.9091 29.7248 72.6006 29.7248C72.292 29.7248 72.0471 29.6385 71.8656 29.4659C71.6842 29.2934 71.6025 29.0527 71.6206 28.744L71.7295 27.4363C71.2759 28.181 70.6679 28.7576 69.9057 29.1662C69.1435 29.5749 68.2906 29.7792 67.3469 29.7792C65.877 29.7792 64.7609 29.3933 63.9987 28.6214C63.2365 27.8495 62.8555 26.719 62.8555 25.2297C62.8555 24.9028 62.8645 24.6575 62.8826 24.4941L63.4543 17.1385C63.4906 16.7935 63.6221 16.5255 63.849 16.3348C64.0758 16.1442 64.3435 16.0488 64.6521 16.0488C64.9787 16.0488 65.2373 16.1442 65.4279 16.3348C65.6184 16.5255 65.6955 16.7935 65.6592 17.1385L65.0876 24.3579C65.0694 24.485 65.0604 24.6757 65.0604 24.9299C65.0604 26.9278 66.0131 27.9267 67.9186 27.9267C69.0981 27.9267 70.0418 27.5634 70.7496 26.837C71.4573 26.1105 71.8566 25.1026 71.9473 23.8131L72.4917 17.1385C72.528 16.7935 72.6596 16.5255 72.8864 16.3348C73.1132 16.1442 73.381 16.0488 73.6894 16.0488Z" fill="#2C2C2C"></path><path d="M79.4862 23.2952V23.4042C79.4862 24.8571 79.8446 25.9831 80.5614 26.7822C81.2782 27.5814 82.3172 27.981 83.6782 27.981C85.1118 27.981 86.3731 27.5814 87.462 26.7822C87.6435 26.6552 87.8249 26.5916 88.0064 26.5916C88.2242 26.5916 88.4011 26.6733 88.5372 26.8368C88.6733 27.0002 88.7413 27.1909 88.7413 27.4088C88.7413 27.7358 88.5962 28.0354 88.3058 28.3079C87.8158 28.7438 87.1308 29.098 86.2506 29.3704C85.3704 29.6428 84.4767 29.779 83.5694 29.779C81.6457 29.779 80.1168 29.1979 78.9826 28.0354C77.8484 26.8731 77.2812 25.3112 77.2812 23.3496C77.2812 21.8967 77.549 20.6163 78.0843 19.5084C78.6197 18.4005 79.3819 17.5378 80.3709 16.9204C81.3599 16.3029 82.5077 15.9941 83.8143 15.9941C85.5928 15.9941 86.9538 16.5253 87.8975 17.5878C88.8411 18.6502 89.313 20.1896 89.313 22.2055C89.313 22.5505 89.2223 22.8185 89.0408 23.0092C88.8593 23.1998 88.6143 23.2952 88.3058 23.2952H79.4862ZM83.896 17.7104C82.6801 17.7104 81.7092 18.0691 80.9833 18.7865C80.2575 19.5039 79.7947 20.5346 79.5951 21.8786H87.3259C87.3803 20.5164 87.1035 19.4812 86.4956 18.7729C85.8877 18.0645 85.0211 17.7104 83.896 17.7104Z" fill="#2C2C2C"></path><path d="M99.4393 15.9941C100.927 15.9941 102.062 16.3846 102.842 17.1656C103.622 17.9466 104.012 19.0816 104.012 20.5709C104.012 20.8978 104.003 21.143 103.985 21.3064L103.414 28.6348C103.377 28.9981 103.25 29.2705 103.033 29.4521C102.815 29.6337 102.552 29.7246 102.243 29.7246C101.898 29.7246 101.631 29.6337 101.44 29.4521C101.25 29.2705 101.172 28.9981 101.209 28.6348L101.78 21.4427C101.799 21.3156 101.808 21.1249 101.808 20.8706C101.808 18.8546 100.837 17.8467 98.8949 17.8467C97.6609 17.8467 96.681 18.2144 95.9551 18.95C95.2291 19.6855 94.8118 20.698 94.7029 21.9875L94.1585 28.6348C94.1403 28.9981 94.0224 29.2705 93.8046 29.4521C93.5869 29.6337 93.3146 29.7246 92.9879 29.7246C92.6613 29.7246 92.4027 29.6337 92.2122 29.4521C92.0216 29.2705 91.9354 28.9981 91.9535 28.6348L92.9063 17.0838C92.9245 16.757 93.0469 16.5027 93.2738 16.321C93.5006 16.1394 93.7683 16.0486 94.0768 16.0486C94.3854 16.0486 94.6303 16.1394 94.8118 16.321C94.9932 16.5027 95.0749 16.7478 95.0568 17.0566L94.9479 18.3642C95.4015 17.6196 96.0186 17.0384 96.7989 16.6207C97.5793 16.203 98.4594 15.9941 99.4393 15.9941Z" fill="#2C2C2C"></path><path d="M110.681 24.7931C110.663 24.9203 110.654 25.1019 110.654 25.338C110.654 26.2098 110.854 26.8727 111.253 27.3267C111.652 27.7808 112.215 28.0079 112.941 28.0079C113.177 28.0079 113.403 27.9942 113.621 27.967C113.839 27.9397 114.002 27.9261 114.111 27.9261C114.293 27.9261 114.442 27.9987 114.56 28.1441C114.678 28.2893 114.737 28.4891 114.737 28.7434C114.737 29.1247 114.579 29.3927 114.261 29.5471C113.943 29.7014 113.385 29.7786 112.587 29.7786C111.28 29.7786 110.264 29.4063 109.538 28.6616C108.812 27.917 108.449 26.8636 108.449 25.5015C108.449 25.2472 108.458 25.0474 108.476 24.9021L108.994 18.0641H107.197C106.907 18.0641 106.684 17.9869 106.53 17.8326C106.376 17.6782 106.299 17.4739 106.299 17.2197C106.299 16.9291 106.385 16.7066 106.557 16.5522C106.73 16.3978 106.97 16.3206 107.279 16.3206H109.13L109.375 13.2149C109.411 12.9062 109.534 12.6565 109.742 12.4658C109.951 12.275 110.219 12.1797 110.545 12.1797C110.89 12.1797 111.158 12.2796 111.348 12.4794C111.539 12.6792 111.616 12.9425 111.58 13.2694L111.335 16.3206H114.329C114.601 16.3206 114.819 16.3978 114.982 16.5522C115.146 16.7066 115.227 16.9109 115.227 17.1652C115.227 17.4558 115.146 17.6782 114.982 17.8326C114.819 17.9869 114.583 18.0641 114.275 18.0641H111.199L110.681 24.7931Z" fill="#2C2C2C"></path><path d="M174.444 10.3984V29.5984H171.289V15.9116L165.447 25.5664H165.063L159.221 15.8842V29.5984H156.066V10.3984H159.468L165.255 19.9984L171.07 10.3984H174.444Z" fill="#2C2C2C"></path><path d="M150.19 29.5984L146.131 22.6041H142.4V29.5984H139.246V10.3984H146.926C148.645 10.3984 150.099 11.0019 151.287 12.2087C152.494 13.3973 153.098 14.851 153.098 16.5699C153.098 17.795 152.741 18.9196 152.028 19.9436C151.333 20.9493 150.419 21.6807 149.285 22.1379L153.646 29.5984H150.19ZM142.4 13.3607V19.779H146.926C147.767 19.779 148.48 19.4682 149.066 18.8464C149.651 18.2247 149.943 17.4659 149.943 16.5699C149.943 15.6739 149.651 14.915 149.066 14.2933C148.48 13.6716 147.767 13.3607 146.926 13.3607H142.4Z" fill="#2C2C2C"></path><path d="M128.369 29.9561C125.48 29.9561 123.084 29.0053 121.183 27.1035C119.281 25.1835 118.33 22.8155 118.33 19.9995C118.33 17.1835 119.281 14.8247 121.183 12.923C123.084 11.003 125.48 10.043 128.369 10.043C130.106 10.043 131.706 10.4544 133.169 11.2773C134.65 12.1001 135.802 13.2155 136.625 14.6235L133.882 16.2144C133.37 15.2635 132.62 14.5138 131.633 13.9653C130.664 13.3984 129.576 13.115 128.369 13.115C126.321 13.115 124.657 13.7641 123.377 15.0624C122.115 16.3607 121.484 18.0064 121.484 19.9995C121.484 21.9927 122.115 23.6384 123.377 24.9367C124.657 26.235 126.321 26.8841 128.369 26.8841C129.576 26.8841 130.673 26.6098 131.66 26.0613C132.648 25.4944 133.388 24.7355 133.882 23.7847L136.625 25.3481C135.82 26.7561 134.678 27.8807 133.196 28.7218C131.734 29.5447 130.124 29.9561 128.369 29.9561Z" fill="#2C2C2C"></path></svg> 