<svg width="264" height="64" viewBox="0 0 264 64" fill="none" xmlns="http://www.w3.org/2000/svg">
<rect width="64" height="64" rx="6.4" fill="#008CFF"/>
<path d="M15 25.7273C15 18.6982 20.6982 13 27.7273 13H30.9091V38.4545C30.9091 45.4836 25.2109 51.1818 18.1818 51.1818H15V25.7273Z" fill="white"/>
<path d="M34.0909 35.2727C34.0909 28.2436 39.7891 22.5454 46.8182 22.5454H50V38.4545C50 45.4836 44.3018 51.1818 37.2727 51.1818H34.0909V35.2727Z" fill="white"/>
<path d="M88.2857 16.5695C88.8664 16.5114 89.3092 16.5912 89.614 16.8092C89.9189 17.0271 90.0713 17.3685 90.0713 17.8335C90.0713 18.7343 89.5777 19.2284 88.5905 19.3155L87.3275 19.4027C85.6725 19.5189 84.4384 20.0202 83.6254 20.9065C82.8124 21.7927 82.3334 23.1223 82.1881 24.8949L82.101 26.1154H86.8484C87.313 26.1154 87.6687 26.2389 87.9155 26.4858C88.1623 26.7328 88.2857 27.0598 88.2857 27.4667C88.2857 27.9025 88.155 28.2511 87.8936 28.5127C87.6324 28.7743 87.2549 28.9049 86.7613 28.9049H81.8833L80.533 45.861C80.504 46.413 80.3153 46.8345 79.967 47.1251C79.6185 47.4156 79.1974 47.561 78.7038 47.561C78.2103 47.561 77.7965 47.4156 77.4626 47.1251C77.1287 46.8345 76.9763 46.413 77.0053 45.861L78.3554 28.9049H75.4373C74.9728 28.9049 74.617 28.7814 74.3702 28.5345C74.1235 28.2875 74.0001 27.9606 74.0001 27.5538C74.0001 27.1179 74.1308 26.7692 74.392 26.5076C74.6534 26.2462 75.0453 26.1154 75.568 26.1154H78.5731L78.6168 25.3307C78.8199 22.512 79.6475 20.398 81.0993 18.9886C82.5511 17.5792 84.6562 16.7874 87.4146 16.613L88.2857 16.5695Z" fill="#2C2C2C"/>
<path d="M92.5968 47.5606C92.1032 47.5606 91.6967 47.4152 91.3774 47.1247C91.058 46.8341 90.9127 46.3982 90.9419 45.8169L93.163 18.0075C93.192 17.4553 93.3954 17.0413 93.7729 16.7653C94.1503 16.4891 94.5859 16.3511 95.0794 16.3511C95.573 16.3511 95.9722 16.4891 96.2771 16.7653C96.5821 17.0413 96.7199 17.4553 96.6909 18.0075L94.4696 45.8169C94.4406 46.3982 94.2447 46.8341 93.8817 47.1247C93.5188 47.4152 93.0905 47.5606 92.5968 47.5606Z" fill="#2C2C2C"/>
<path d="M117.902 25.6801C118.425 25.6801 118.839 25.8326 119.143 26.1377C119.448 26.4428 119.572 26.8715 119.514 27.4236L118.033 45.9487C118.004 46.4427 117.808 46.835 117.445 47.1257C117.082 47.4162 116.654 47.5616 116.16 47.5616C115.666 47.5616 115.274 47.4235 114.984 47.1474C114.694 46.8714 114.563 46.4863 114.592 45.9923L114.766 43.9001C114.04 45.0915 113.068 46.0141 111.848 46.6679C110.629 47.3217 109.264 47.6487 107.754 47.6487C105.402 47.6487 103.616 47.0312 102.397 45.7961C101.177 44.5612 100.568 42.7523 100.568 40.3694C100.568 39.8463 100.582 39.454 100.611 39.1925L101.526 27.4236C101.584 26.8715 101.794 26.4428 102.157 26.1377C102.52 25.8326 102.949 25.6801 103.442 25.6801C103.965 25.6801 104.379 25.8326 104.684 26.1377C104.988 26.4428 105.112 26.8715 105.054 27.4236L104.139 38.9746C104.11 39.1779 104.096 39.483 104.096 39.8898C104.096 43.0864 105.62 44.6847 108.669 44.6847C110.556 44.6847 112.066 44.1034 113.198 42.9412C114.331 41.7788 114.969 40.166 115.115 38.1028L115.986 27.4236C116.044 26.8715 116.254 26.4428 116.617 26.1377C116.98 25.8326 117.409 25.6801 117.902 25.6801Z" fill="#2C2C2C"/>
<path d="M127.178 37.2726V37.447C127.178 39.7717 127.752 41.5733 128.899 42.8519C130.046 44.1305 131.708 44.7699 133.886 44.7699C136.179 44.7699 138.197 44.1305 139.94 42.8519C140.23 42.6486 140.52 42.5468 140.811 42.5468C141.159 42.5468 141.442 42.6776 141.66 42.9392C141.878 43.2006 141.987 43.5057 141.987 43.8545C141.987 44.3776 141.754 44.857 141.29 45.2929C140.506 45.9904 139.41 46.557 138.001 46.9929C136.593 47.4288 135.163 47.6467 133.711 47.6467C130.634 47.6467 128.187 46.7169 126.373 44.857C124.558 42.9973 123.65 40.4982 123.65 37.3597C123.65 35.0351 124.079 32.9865 124.935 31.2138C125.792 29.4412 127.011 28.0608 128.594 27.0729C130.176 26.0849 132.013 25.5909 134.103 25.5909C136.949 25.5909 139.127 26.4408 140.636 28.1408C142.146 29.8407 142.901 32.3036 142.901 35.5291C142.901 36.0811 142.756 36.5099 142.466 36.815C142.175 37.12 141.783 37.2726 141.29 37.2726H127.178ZM134.234 28.337C132.289 28.337 130.735 28.9109 129.574 30.0587C128.412 31.2066 127.672 32.8557 127.353 35.006H139.722C139.809 32.8266 139.366 31.1703 138.393 30.0369C137.421 28.9036 136.034 28.337 134.234 28.337Z" fill="#2C2C2C"/>
<path d="M159.103 25.5909C161.484 25.5909 163.299 26.2157 164.547 27.4653C165.796 28.7148 166.42 30.5309 166.42 32.9138C166.42 33.4368 166.405 33.8292 166.376 34.0906L165.462 45.8159C165.404 46.3972 165.2 46.8331 164.852 47.1237C164.504 47.4142 164.082 47.5596 163.589 47.5596C163.037 47.5596 162.609 47.4142 162.304 47.1237C161.999 46.8331 161.876 46.3972 161.934 45.8159L162.849 34.3086C162.878 34.1052 162.892 33.8001 162.892 33.3933C162.892 30.1677 161.339 28.555 158.232 28.555C156.257 28.555 154.69 29.1434 153.528 30.3202C152.367 31.4971 151.699 33.1171 151.525 35.1803L150.653 45.8159C150.624 46.3972 150.436 46.8331 150.087 47.1237C149.739 47.4142 149.303 47.5596 148.781 47.5596C148.258 47.5596 147.844 47.4142 147.539 47.1237C147.235 46.8331 147.097 46.3972 147.126 45.8159L148.65 27.3345C148.679 26.8114 148.875 26.4046 149.238 26.114C149.601 25.8233 150.029 25.6781 150.523 25.6781C151.017 25.6781 151.408 25.8233 151.699 26.114C151.989 26.4046 152.12 26.7968 152.091 27.2908L151.917 29.3831C152.642 28.1916 153.63 27.2618 154.878 26.5935C156.127 25.9251 157.535 25.5909 159.103 25.5909Z" fill="#2C2C2C"/>
<path d="M177.09 39.6709C177.061 39.8744 177.047 40.165 177.047 40.5426C177.047 41.9376 177.366 42.9982 178.005 43.7246C178.644 44.4511 179.544 44.8144 180.705 44.8144C181.083 44.8144 181.446 44.7925 181.794 44.749C182.143 44.7054 182.404 44.6836 182.578 44.6836C182.869 44.6836 183.108 44.7998 183.297 45.0324C183.485 45.2648 183.58 45.5845 183.58 45.9913C183.58 46.6015 183.326 47.0302 182.818 47.2772C182.31 47.5242 181.417 47.6477 180.139 47.6477C178.048 47.6477 176.423 47.0519 175.261 45.8605C174.1 44.669 173.519 42.9836 173.519 40.8042C173.519 40.3974 173.533 40.0777 173.562 39.8453L174.39 28.9045H171.516C171.051 28.9045 170.695 28.781 170.448 28.534C170.202 28.287 170.078 27.9602 170.078 27.5533C170.078 27.0884 170.216 26.7324 170.492 26.4854C170.768 26.2384 171.153 26.1149 171.646 26.1149H174.608L175 21.1458C175.058 20.6518 175.254 20.2522 175.588 19.9472C175.922 19.6419 176.35 19.4894 176.873 19.4894C177.424 19.4894 177.853 19.6492 178.157 19.9689C178.462 20.2886 178.586 20.7099 178.528 21.2329L178.136 26.1149H182.927C183.362 26.1149 183.711 26.2384 183.972 26.4854C184.233 26.7324 184.364 27.0594 184.364 27.4662C184.364 27.9311 184.233 28.287 183.972 28.534C183.711 28.781 183.333 28.9045 182.839 28.9045H177.918L177.09 39.6709Z" fill="#2C2C2C"/>
<path d="M253.316 26.2005C256.103 26.2005 258.477 27.2631 260.437 29.3883C262.424 31.486 263.418 34.0666 263.418 37.1303C263.418 40.1939 262.424 42.7883 260.437 44.9136C258.477 47.0112 256.103 48.06 253.316 48.06C250.418 48.06 248.182 47.0526 246.609 45.0378V47.4804H241.268V18.5H246.609V29.2227C248.182 27.2079 250.418 26.2005 253.316 26.2005ZM248.224 41.3531C249.3 42.4295 250.666 42.9677 252.322 42.9677C253.978 42.9677 255.344 42.4295 256.421 41.3531C257.525 40.2491 258.077 38.8415 258.077 37.1303C258.077 35.419 257.525 34.0252 256.421 32.9488C255.344 31.8448 253.978 31.2928 252.322 31.2928C250.666 31.2928 249.3 31.8448 248.224 32.9488C247.147 34.0252 246.609 35.419 246.609 37.1303C246.609 38.8415 247.147 40.2491 248.224 41.3531Z" fill="#2C2C2C"/>
<path d="M231.036 26.7801H236.377V47.4804H231.036V45.1619C229.739 47.094 227.683 48.06 224.868 48.06C222.604 48.06 220.727 47.301 219.237 45.7829C217.774 44.2649 217.043 42.1673 217.043 39.4901V26.7801H222.384V38.8277C222.384 40.2077 222.756 41.2703 223.501 42.0155C224.247 42.7331 225.24 43.0919 226.482 43.0919C227.862 43.0919 228.966 42.6641 229.794 41.8085C230.622 40.9529 231.036 39.6695 231.036 37.9582V26.7801Z" fill="#2C2C2C"/>
<path d="M206.567 18.5H212.239V47.4804H206.567V35.4742H195.803V47.4804H190.089V18.5H195.803V30.0094H206.567V18.5Z" fill="#2C2C2C"/>
</svg>
