<svg width="236" height="64" viewBox="0 0 236 64" fill="none" xmlns="http://www.w3.org/2000/svg">
<rect width="64" height="64" rx="6.4" fill="#008CFF"/>
<path d="M32.6667 15L46.2681 15C47.2953 15 47.8212 16.2314 47.1109 16.9734L30.3333 34.5H16.7319C15.7047 34.5 15.1788 33.2686 15.8891 32.5266L32.6667 15Z" fill="white"/>
<path d="M34.4108 50L46.7576 50C47.7018 50 48.2549 48.9369 47.713 48.1637L40.5892 38H26L34.4108 50Z" fill="white"/>
<path d="M88.2858 16.5696C88.8664 16.5115 89.3092 16.5914 89.6141 16.8093C89.9189 17.0273 90.0713 17.3687 90.0713 17.8336C90.0713 18.7344 89.5778 19.2286 88.5906 19.3157L87.3276 19.4028C85.6726 19.519 84.4385 20.0203 83.6254 20.9067C82.8124 21.7929 82.3334 23.1224 82.1882 24.895L82.1011 26.1155H86.8485C87.313 26.1155 87.6688 26.239 87.9156 26.486C88.1624 26.733 88.2858 27.06 88.2858 27.4668C88.2858 27.9027 88.1551 28.2513 87.8937 28.5129C87.6325 28.7744 87.255 28.9051 86.7614 28.9051H81.8833L80.5331 45.8611C80.5041 46.4132 80.3153 46.8346 79.967 47.1253C79.6186 47.4158 79.1975 47.5611 78.7039 47.5611C78.2103 47.5611 77.7965 47.4158 77.4626 47.1253C77.1288 46.8346 76.9764 46.4132 77.0054 45.8611L78.3554 28.9051H75.4374C74.9729 28.9051 74.6171 28.7816 74.3703 28.5346C74.1235 28.2876 74.0001 27.9608 74.0001 27.554C74.0001 27.1181 74.1308 26.7693 74.392 26.5077C74.6534 26.2463 75.0453 26.1155 75.5681 26.1155H78.5732L78.6168 25.3309C78.82 22.5121 79.6476 20.3981 81.0993 18.9887C82.5512 17.5793 84.6562 16.7876 87.4147 16.6131L88.2858 16.5696Z" fill="white"/>
<path d="M92.5968 47.5605C92.1032 47.5605 91.6967 47.4151 91.3774 47.1247C91.058 46.834 90.9127 46.3981 90.9419 45.8169L93.163 18.0075C93.192 17.4552 93.3954 17.0412 93.7729 16.7652C94.1503 16.489 94.5859 16.3511 95.0794 16.3511C95.573 16.3511 95.9722 16.489 96.2771 16.7652C96.5821 17.0412 96.7199 17.4552 96.6909 18.0075L94.4696 45.8169C94.4406 46.3981 94.2447 46.834 93.8817 47.1247C93.5188 47.4151 93.0905 47.5605 92.5968 47.5605Z" fill="white"/>
<path d="M117.902 25.6802C118.425 25.6802 118.839 25.8327 119.143 26.1378C119.448 26.4429 119.572 26.8716 119.514 27.4237L118.033 45.9488C118.004 46.4428 117.808 46.8352 117.445 47.1258C117.082 47.4163 116.654 47.5617 116.16 47.5617C115.666 47.5617 115.274 47.4236 114.984 47.1476C114.694 46.8715 114.563 46.4864 114.592 45.9925L114.766 43.9002C114.04 45.0916 113.068 46.0142 111.848 46.668C110.629 47.3218 109.264 47.6488 107.754 47.6488C105.402 47.6488 103.616 47.0314 102.397 45.7963C101.177 44.5613 100.568 42.7524 100.568 40.3695C100.568 39.8465 100.582 39.4541 100.611 39.1926L101.526 27.4237C101.584 26.8716 101.794 26.4429 102.157 26.1378C102.52 25.8327 102.949 25.6802 103.442 25.6802C103.965 25.6802 104.379 25.8327 104.684 26.1378C104.988 26.4429 105.112 26.8716 105.054 27.4237L104.139 38.9747C104.11 39.178 104.096 39.4831 104.096 39.89C104.096 43.0865 105.62 44.6848 108.669 44.6848C110.556 44.6848 112.066 44.1035 113.198 42.9413C114.331 41.7789 114.969 40.1662 115.115 38.1029L115.986 27.4237C116.044 26.8716 116.254 26.4429 116.617 26.1378C116.98 25.8327 117.409 25.6802 117.902 25.6802Z" fill="white"/>
<path d="M127.178 37.2725V37.4469C127.178 39.7716 127.752 41.5732 128.899 42.8518C130.046 44.1304 131.708 44.7697 133.886 44.7697C136.179 44.7697 138.198 44.1304 139.94 42.8518C140.23 42.6484 140.52 42.5467 140.811 42.5467C141.159 42.5467 141.442 42.6775 141.66 42.9391C141.878 43.2005 141.987 43.5056 141.987 43.8543C141.987 44.3775 141.754 44.8569 141.29 45.2928C140.506 45.9902 139.41 46.5569 138.001 46.9928C136.593 47.4287 135.163 47.6466 133.712 47.6466C130.634 47.6466 128.187 46.7168 126.373 44.8569C124.558 42.9972 123.651 40.4981 123.651 37.3596C123.651 35.035 124.079 32.9864 124.935 31.2136C125.792 29.4411 127.012 28.0607 128.594 27.0728C130.176 26.0848 132.013 25.5908 134.103 25.5908C136.949 25.5908 139.127 26.4407 140.637 28.1407C142.146 29.8406 142.901 32.3035 142.901 35.5289C142.901 36.081 142.756 36.5098 142.466 36.8148C142.175 37.1199 141.783 37.2725 141.29 37.2725H127.178ZM134.234 28.3369C132.289 28.3369 130.735 28.9107 129.574 30.0585C128.412 31.2065 127.672 32.8556 127.353 35.0059H139.722C139.809 32.8265 139.366 31.1701 138.393 30.0368C137.421 28.9034 136.034 28.3369 134.234 28.3369Z" fill="white"/>
<path d="M159.103 25.5908C161.484 25.5908 163.299 26.2156 164.547 27.4651C165.796 28.7147 166.42 30.5308 166.42 32.9137C166.42 33.4367 166.405 33.8291 166.376 34.0905L165.462 45.8158C165.404 46.3971 165.2 46.833 164.852 47.1236C164.504 47.4141 164.082 47.5595 163.589 47.5595C163.037 47.5595 162.609 47.4141 162.304 47.1236C161.999 46.833 161.876 46.3971 161.934 45.8158L162.849 34.3084C162.878 34.1051 162.892 33.8 162.892 33.3932C162.892 30.1676 161.339 28.5548 158.232 28.5548C156.257 28.5548 154.69 29.1433 153.528 30.3201C152.367 31.497 151.699 33.117 151.525 35.1802L150.653 45.8158C150.624 46.3971 150.436 46.833 150.087 47.1236C149.739 47.4141 149.303 47.5595 148.781 47.5595C148.258 47.5595 147.844 47.4141 147.539 47.1236C147.235 46.833 147.097 46.3971 147.126 45.8158L148.65 27.3343C148.679 26.8113 148.875 26.4045 149.238 26.1138C149.601 25.8232 150.029 25.678 150.523 25.678C151.017 25.678 151.408 25.8232 151.699 26.1138C151.989 26.4045 152.12 26.7967 152.091 27.2907L151.917 29.383C152.642 28.1915 153.63 27.2617 154.878 26.5934C156.127 25.925 157.535 25.5908 159.103 25.5908Z" fill="white"/>
<path d="M177.09 39.6707C177.061 39.8742 177.047 40.1649 177.047 40.5425C177.047 41.9374 177.366 42.9981 178.005 43.7245C178.644 44.451 179.544 44.8143 180.705 44.8143C181.083 44.8143 181.446 44.7924 181.794 44.7489C182.143 44.7053 182.404 44.6835 182.578 44.6835C182.869 44.6835 183.108 44.7997 183.297 45.0323C183.486 45.2647 183.58 45.5843 183.58 45.9912C183.58 46.6013 183.326 47.0301 182.818 47.2771C182.31 47.5241 181.417 47.6475 180.139 47.6475C178.049 47.6475 176.423 47.0518 175.261 45.8604C174.1 44.6689 173.519 42.9835 173.519 40.8041C173.519 40.3973 173.533 40.0776 173.563 39.8452L174.39 28.9044H171.516C171.051 28.9044 170.695 28.7809 170.448 28.5339C170.202 28.2869 170.078 27.96 170.078 27.5532C170.078 27.0883 170.216 26.7322 170.492 26.4853C170.768 26.2383 171.153 26.1148 171.646 26.1148H174.608L175 21.1456C175.058 20.6517 175.254 20.2521 175.588 19.947C175.922 19.6418 176.35 19.4893 176.873 19.4893C177.424 19.4893 177.853 19.6491 178.157 19.9688C178.462 20.2885 178.586 20.7098 178.528 21.2328L178.136 26.1148H182.927C183.362 26.1148 183.711 26.2383 183.972 26.4853C184.233 26.7322 184.364 27.0592 184.364 27.4661C184.364 27.931 184.233 28.2869 183.972 28.5339C183.711 28.7809 183.333 28.9044 182.84 28.9044H177.918L177.09 39.6707Z" fill="white"/>
<path d="M235.022 32.4453H230.502V40.7653C230.502 41.4586 230.675 41.9653 231.022 42.2853C231.369 42.6053 231.875 42.7919 232.542 42.8453C233.209 42.8719 234.035 42.8586 235.022 42.8053V47.4853C231.475 47.8853 228.969 47.5519 227.502 46.4853C226.062 45.4186 225.342 43.5119 225.342 40.7653V32.4453H221.862V27.4853H225.342V23.4453L230.502 21.8853V27.4853H235.022V32.4453Z" fill="white"/>
<path d="M216.259 25.0856C215.406 25.0856 214.659 24.7789 214.019 24.1656C213.406 23.5256 213.099 22.7789 213.099 21.9256C213.099 21.0723 213.406 20.3256 214.019 19.6856C214.659 19.0456 215.406 18.7256 216.259 18.7256C217.139 18.7256 217.886 19.0456 218.499 19.6856C219.139 20.3256 219.459 21.0723 219.459 21.9256C219.459 22.7789 219.139 23.5256 218.499 24.1656C217.886 24.7789 217.139 25.0856 216.259 25.0856ZM213.699 47.4856V27.4856H218.859V47.4856H213.699Z" fill="white"/>
<path d="M211.21 47.4854H204.85L194.85 34.3654V47.4854H189.33V19.4854H194.85V31.8454L204.45 19.4854H210.81L200.45 33.0854L211.21 47.4854Z" fill="white"/>
</svg>
